HIERARCHY
ROOT Hips
{
	OFFSET 52.876801 -7.033849 56.108700
	CHANNELS 6 Xposition Yposition Zposition Xrotation Yrotation Zrotation
	JOINT spine
	{
		OFFSET 0.000000 -0.367607 6.392601
		CHANNELS 3 Xrotation Yrotation Zrotation
		JOINT spine1
		{
			OFFSET 0.000000 -0.000001 9.176113
			CHANNELS 3 Xrotation Yrotation Zrotation
			JOINT spine2
			{
				OFFSET 0.000000 -0.000001 8.792381
				CHANNELS 3 Xrotation Yrotation Zrotation
				JOINT Neck
				{
					OFFSET 0.000000 -1.076244 22.573700
					CHANNELS 3 Xrotation Yrotation Zrotation
					JOINT Head
					{
						OFFSET 0.000000 -0.000001 6.820107
						CHANNELS 3 Xrotation Yrotation Zrotation
						End Site
						{
							OFFSET 0.000000 5.444268 16.508499
						}
					}
				}
				JOINT RightShoulder
				{
					OFFSET -3.702209 0.515506 9.495087
					CHANNELS 3 Xrotation Yrotation Zrotation
					JOINT RightArm
					{
						OFFSET 0.000000 -0.000002 12.453697
						CHANNELS 3 Xrotation Yrotation Zrotation
						JOINT RightArmRoll
						{
							OFFSET 0.000000 -0.000001 6.286858
							CHANNELS 3 Xrotation Yrotation Zrotation
							JOINT RightForeArm
							{
								OFFSET 0.000000 -0.000003 18.311401
								CHANNELS 3 Xrotation Yrotation Zrotation
								JOINT RightForeArmRoll
								{
									OFFSET 0.000000 -0.000001 7.054832
									CHANNELS 3 Xrotation Yrotation Zrotation
									JOINT RightHand
									{
										OFFSET 0.000000 -0.000002 14.157501
										CHANNELS 3 Xrotation Yrotation Zrotation
										End Site
										{
											OFFSET 0.000000 0.000000 0.100006
										}
									}
								}
							}
						}
					}
				}
				JOINT LeftShoulder
				{
					OFFSET 3.702209 0.515506 9.495087
					CHANNELS 3 Xrotation Yrotation Zrotation
					JOINT LeftArm
					{
						OFFSET 0.000000 -0.000002 12.453697
						CHANNELS 3 Xrotation Yrotation Zrotation
						JOINT LeftArmRoll
						{
							OFFSET 0.000000 -0.000001 6.286850
							CHANNELS 3 Xrotation Yrotation Zrotation
							JOINT LeftForeArm
							{
								OFFSET 0.000000 -0.000003 18.311401
								CHANNELS 3 Xrotation Yrotation Zrotation
								JOINT LeftForeArmRoll
								{
									OFFSET 0.000000 -0.000001 7.054825
									CHANNELS 3 Xrotation Yrotation Zrotation
									JOINT LeftHand
									{
										OFFSET 0.000000 -0.000002 14.157501
										CHANNELS 3 Xrotation Yrotation Zrotation
										End Site
										{
											OFFSET 0.000000 0.000000 0.100006
										}
									}
								}
							}
						}
					}
				}
			}
		}
	}
	JOINT RightUpLeg
	{
		OFFSET -5.666161 0.871610 -1.039028
		CHANNELS 3 Xrotation Yrotation Zrotation
		JOINT RightUpLegRoll
		{
			OFFSET 0.000000 -0.000002 16.600502
			CHANNELS 3 Xrotation Yrotation Zrotation
			JOINT RightLeg
			{
				OFFSET 0.000000 0.000003 -20.557198
				CHANNELS 3 Xrotation Yrotation Zrotation
				JOINT RightLegRoll
				{
					OFFSET 0.000000 -0.000004 20.624397
					CHANNELS 3 Xrotation Yrotation Zrotation
					JOINT RightFoot
					{
						OFFSET 0.000000 -0.000002 17.166405
						CHANNELS 3 Xrotation Yrotation Zrotation
						JOINT RightToeBase
						{
							OFFSET 0.000000 -0.000002 14.350197
							CHANNELS 3 Xrotation Yrotation Zrotation
							End Site
							{
								OFFSET 0.006081 0.801060 6.949699
							}
						}
					}
				}
			}
		}
	}
	JOINT LeftUpLeg
	{
		OFFSET 5.666161 0.871610 -1.039028
		CHANNELS 3 Xrotation Yrotation Zrotation
		JOINT LeftUpLegRoll
		{
			OFFSET 0.000000 -0.000002 16.600601
			CHANNELS 3 Xrotation Yrotation Zrotation
			JOINT LeftLeg
			{
				OFFSET 0.000000 -0.000004 20.557098
				CHANNELS 3 Xrotation Yrotation Zrotation
				JOINT LeftLegRoll
				{
					OFFSET 0.000000 -0.000003 20.815102
					CHANNELS 3 Xrotation Yrotation Zrotation
					JOINT LeftFoot
					{
						OFFSET 0.000000 -0.000002 16.975700
						CHANNELS 3 Xrotation Yrotation Zrotation
						JOINT LeftToeBase
						{
							OFFSET 0.000000 -0.000002 14.350204
							CHANNELS 3 Xrotation Yrotation Zrotation
							End Site
							{
								OFFSET -0.027260 0.801059 6.949707
							}
						}
					}
				}
			}
		}
	}
}
MOTION
Frames: 4
Frame Time: 0.041667
53.132797 -6.947003 57.086098 10.477554 0.768446 3.225473 1.719917 0.464366 -0.786806 7.449266 0.896577 -1.593674 9.094166 0.877426 -1.604293 -4.020416 -8.988239 0.378635 5.811530 3.535778 2.138414 3.222184 -54.727878 4.416859 -48.014393 -123.154909 -80.576896 0.000002 -0.000001 -0.000004 82.981498 0.001800 -2.921519 -0.000004 0.000000 -2.999989 -5.000206 -7.998780 0.000171 -0.401270 39.233310 -2.286030 -39.147465 129.537324 68.930392 0.000000 0.000007 -0.000002 80.374429 3.164990 3.086750 -0.000006 0.000001 3.000000 -5.000195 7.998707 -0.000165 -90.028170 -171.496652 3.034208 -179.999991 0.000005 -0.928996 104.502290 -0.340380 -3.392690 0.000005 -0.000002 1.433710 66.334722 7.020815 1.987262 25.463942 -7.347615 0.001090 -92.138569 177.407101 -0.078488 -0.000005 -0.000004 -1.084980 -78.257063 -2.827065 0.570984 0.000005 0.000004 -1.765149 64.078506 -7.357920 -1.364909 25.456957 7.354019 -0.000001 
53.077396 -6.891501 57.108097 10.252800 0.835397 3.150959 1.738244 0.461866 -0.792780 7.485951 0.891080 -1.606436 9.130844 0.871777 -1.616992 -3.969971 -8.960178 0.430257 5.874510 3.495222 2.183403 3.380723 -54.793898 4.596006 -48.116364 -123.229371 -80.506402 0.000002 -0.000001 -0.000005 82.824786 -0.064292 -2.851387 -0.000005 -0.000001 -2.999990 -5.000211 -7.998781 0.000173 -0.624832 39.280326 -1.984918 -39.124854 129.554250 68.978811 0.000000 0.000005 0.000000 80.338215 3.178639 3.076810 -0.000006 0.000000 3.000002 -5.000198 7.998712 -0.000166 -89.847922 -171.589679 3.095776 -179.999991 0.000005 -0.933996 104.537500 -0.340437 -3.394584 0.000005 -0.000002 1.435770 66.328165 7.022760 1.982291 25.463937 -7.347616 0.001090 -92.023685 177.271864 -0.020807 -0.000005 -0.000005 -1.085160 -78.251585 -2.871715 0.548318 0.000005 0.000004 -1.766829 64.083867 -7.361242 -1.356514 25.456960 7.354019 -0.000000 
53.064495 -6.842360 57.085396 10.025960 0.904628 3.072564 1.757285 0.459489 -0.799344 7.524033 0.885787 -1.620399 9.168923 0.866315 -1.630895 -3.921065 -8.927462 0.485974 5.937740 3.451149 2.232222 3.558043 -54.855677 4.798438 -48.217994 -123.307686 -80.423504 0.000002 -0.000001 -0.000003 82.659626 -0.134234 -2.778069 -0.000004 0.000001 -2.999990 -5.000208 -7.998780 0.000172 -0.864335 39.324503 -1.662984 -39.097437 129.575710 69.026616 0.000000 0.000006 0.000000 80.297801 3.193273 3.065786 -0.000005 0.000000 3.000002 -5.000197 7.998707 -0.000162 -89.660590 -171.688785 3.158757 -179.999991 0.000006 -0.937998 104.577368 -0.342103 -3.396245 0.000005 -0.000003 1.437700 66.321711 7.024721 1.977318 25.463942 -7.347619 0.001091 -91.902627 177.129563 0.036570 -0.000005 -0.000004 -1.085210 -78.241962 -2.915244 0.526846 0.000005 0.000004 -1.768301 64.090042 -7.364438 -1.348334 25.456953 7.354019 -0.000001 
53.041695 -6.770081 57.101894 9.798735 0.975668 2.991894 1.776576 0.457151 -0.806328 7.562657 0.880540 -1.635210 9.207536 0.860892 -1.645645 -3.873017 -8.890975 0.544415 6.001317 3.404523 2.283476 3.748551 -54.912703 5.017466 -48.317585 -123.388938 -80.329336 0.000001 -0.000000 -0.000004 82.487341 -0.207280 -2.702250 -0.000003 -0.000001 -2.999990 -5.000208 -7.998777 0.000171 -1.114593 39.365276 -1.327091 -39.065158 129.600668 69.071579 -0.000001 0.000008 0.000000 80.253145 3.208774 3.053660 -0.000006 0.000001 3.000001 -5.000197 7.998712 -0.000164 -89.468703 -171.791757 3.222423 -179.999991 0.000005 -0.942998 104.620917 -0.345127 -3.399728 0.000005 -0.000002 1.439500 66.315529 7.026563 1.972501 25.463942 -7.347616 0.001090 -91.777436 176.982455 0.095228 -0.000005 -0.000004 -1.085140 -78.229080 -2.957524 0.506538 0.000005 0.000004 -1.769580 64.096906 -7.367504 -1.340277 25.456955 7.354018 -0.000001 
